<svg version="1" xmlns="http://www.w3.org/2000/svg" width="682.667" height="682.667" viewBox="0 0 512.000000 512.000000"><path d="M117 8.1c-6.1 11.9 1.2 24.3 28.6 48.3 4.3 3.9 8.4 7.5 8.9 8.1.6.6 1.7 1.6 2.6 2.1.9.5 4.9 3.8 8.9 7.4 11 9.9 13.3 12 12.9 12.3-.2.1-5.3 2.6-11.3 5.6-36.9 18.3-66.6 47.7-86.3 85.2-4.4 8.5-12.6 28.3-13.8 33.5-.2 1.1-1.1 4.4-1.9 7.4-1.4 5.1-2.4 9.6-3.1 14.5-2.1 13.4-2.7 18.7-2.9 28.3-.3 9.9-.6 11.5-2.3 12.7-1.1.8-2.5 3.7-3.3 7-1.5 6.3-1.9 29.1-.7 43 .5 4.9 1 11.7 1.3 15 .2 3.3.9 8.5 1.4 11.5.5 3 1.2 7.3 1.5 9.5.5 4.5 1.1 7.5 3 16 4.8 21.7 29.6 89 35.8 97 5.6 7.4 16.4 15.7 26.2 20.3 10.6 5 29.7 10.1 40.1 10.7 1.7.1 3.5.4 4 .7.5.3 3.6.9 6.9 1.3 14.5 1.7 21.5 2.2 28 1.9 3.9-.2 7.5-.3 8-.2 16.1.8 32.5.7 32.5-.2 0-.7.6-.8 1.9 0 2.6 1.3 22.8 1.3 23.6 0 .5-.8 1.1-.8 2 0 .9.7 6.4 1 16.7.7 8.4-.3 16-.5 16.8-.5.8 0 4.9.1 9.1.2 7.4.2 30-1.9 32.9-3 .8-.4 3.5-.8 6-.9 2.5-.2 5.5-.6 6.8-.9 2.7-.7 4.4-1.1 10.2-2.5 20.1-4.6 35.4-13.2 46.3-26 3.7-4.5 6-8.8 10.8-21.1 8.6-21.9 23.2-63.2 24.3-69.2.2-.7.8-3.1 1.4-5.3 1.4-5 2-8.2 3.3-16.5.5-3.6 1.1-7.2 1.4-8 .6-2.1 1.6-12.4 3.1-30 1.1-13.5.9-38.8-.4-43.5-.7-2.3-2.1-5.1-3.3-6.4-1.8-1.9-2.1-3.7-2.4-12.9-.3-11.2-.7-15.1-3-29.2-2.4-15-9.3-35.5-18-53.1-12.1-24.7-32.9-50.1-55-67-7.3-5.7-26.1-17.9-27.4-17.9-.5 0-3.7-1.6-7.1-3.5-3.4-1.9-6.6-3.5-7.1-3.5-1.7 0-.9-1.7 1.9-4.1 1.5-1.3 9.2-8 17.2-14.9 16.7-14.4 14.8-12.7 23.4-20.8 17.6-16.7 23.7-29.2 19-38.5-2.5-4.8-3.4-4.9-7.8-.7-6.9 6.6-9.9 8.9-16.6 12.9-7.4 4.3-17.9 8.7-23 9.6-1.9.3-4.6.8-6 1-6.2 1.3-22.7.5-31.6-1.5-13-2.9-25.7-7.8-45-17.1l-10-4.9-12 5.8c-6.5 3.3-13 6.3-14.4 6.7-1.4.4-2.9 1.1-3.5 1.5-1.1.8-16 5.8-19.1 6.4-1 .2-3.7.9-5.9 1.5-5.1 1.3-14.5 2.3-21.5 2.3-19.7-.1-39.1-8.3-54.8-23.2-2.9-2.7-5.5-5-5.7-5-.3 0-1.4 1.8-2.5 4.1z"/></svg>